# xmcd
#
# Track frame offsets:
#	150
#	18113
#	35771
#	51787
#	72308
#	92163
#	112511
#	128664
#	148011
#	164213
#	184989
#	204396
#	225007
#	232804
#	245614
#	260370
#
# Disc length: 3735 seconds
#
# Revision: 0
# Processed by: cddbd v1.5.2PL0 Copyright (c) Steve Scherf et al.
# Submitted via: audiograbber 1.83.01
#
DISCID=d10e9510
DTITLE=Andrea Bocelli - my Christmas
DYEAR=1900
DGENRE=
TTITLE0=White Christmas - Bianco Natale
TTITLE1=Angels we have heard on high
TTITLE2=Santa Claus is coming to town
TTITLE3=The Christmas song
TTITLE4=The Lord's prayer
TTITLE5=What Child is this
TTITLE6=Adeste Fideles
TTITLE7=O Tannenbaum
TTITLE8=Jingle Bells
TTITLE9=Silent Night
TTITLE10=Blue Christmas
TTITLE11=Cantique de Noel
TTITLE12=Caro Gesu' Bambino
TTITLE13=Tu scendi dalle Stelle
TTITLE14=God bless us everyone
TTITLE15=I believe
EXTD=
EXTT0=
EXTT1=
EXTT2=
EXTT3=
EXTT4=
EXTT5=
EXTT6=
EXTT7=
EXTT8=
EXTT9=
EXTT10=
EXTT11=
EXTT12=
EXTT13=
EXTT14=
EXTT15=
PLAYORDER=
